<svg width="12" height="12" viewBox="0 0 12 12" fill="none" xmlns="http://www.w3.org/2000/svg">
<path d="M5 4.505L5.005 4.49944" stroke="white" stroke-linecap="round" stroke-linejoin="round"/>
<path d="M7 4.505L7.005 4.49944" stroke="white" stroke-linecap="round" stroke-linejoin="round"/>
<path d="M5 6.505L5.005 6.49944" stroke="white" stroke-linecap="round" stroke-linejoin="round"/>
<path d="M7 6.505L7.005 6.49944" stroke="white" stroke-linecap="round" stroke-linejoin="round"/>
<path d="M5 8.505L5.005 8.49944" stroke="white" stroke-linecap="round" stroke-linejoin="round"/>
<path d="M7 8.505L7.005 8.49944" stroke="white" stroke-linecap="round" stroke-linejoin="round"/>
<path d="M3 9.9V3.1C3 2.76863 3.26863 2.5 3.6 2.5H6V2.1C6 1.76863 6.26863 1.5 6.6 1.5H8.4C8.73137 1.5 9 1.76863 9 2.1V9.9C9 10.2314 8.73137 10.5 8.4 10.5H3.6C3.26863 10.5 3 10.2314 3 9.9Z" stroke="white" stroke-linecap="round" stroke-linejoin="round"/>
</svg>
